<svg xmlns="http://www.w3.org/2000/svg" viewBox="91.41392782627906 50.000000000000014 392.1721443474419 474.9995541171322"> <g transform="rotate(0 287.5 246.07750654381783)"><svg xmlns="http://www.w3.org/2000/svg" xmlns:xlink="http://www.w3.org/1999/xlink" version="1.1" id="Layer_2_1_" x="161.41392782627906" y="120.00000000000001" viewBox="416.70001220703125 445.5 1091.60009765625 1091.5999755859375" xml:space="preserve" height="252.15501308763564" width="252.17214434744184" preserveAspectRatio="xMinYMin" enable-background="new 0 0 2000 2000" style="overflow: visible;"><circle class="st0" cx="962.5" cy="991.3" r="545.8" style="fill: #ffffff; fill-opacity: 0;"></circle><circle class="st1" cx="962.5" cy="991.3" r="495.6" style="fill: #FFE4C5; fill-opacity: 1;"></circle><path class="st2" d="M559.3,1495.8L559.3,1495.8c-31.9-1.4-38.3-16.2-39.4-20.7v-0.1L428,1256.2l-0.1-0.4     c-4.5-16-3.1-29,4.3-38.8c11.4-15,33-17.3,44.8-17.3c2.1,0,3.6,0.1,4.3,0.1h0.1h262.3l12.6-47.6l-0.6-0.7     c-2.7-2.7-6-6.7-9.9-11.9l-0.5-0.6h-0.8c-19-0.6-36.9-4.7-53.4-12s-31.1-17.8-43.6-31.1c-23.5-25.1-37.6-59.3-38.7-93.8     c-1.6-49,21.4-83.7,35.2-100l1.4-1.6l-2-0.9c-11.7-5.2-21.3-13.5-28.3-24.8c-12.1-19.4-15.1-45.8-8.3-74.5     c6.8-28.6,24.2-44.7,37.7-53.2c10.2-6.4,19.6-9.5,24.4-10.7l0.6-0.2l8.9-15.6l-0.1-0.5c-10.8-76,1.2-129.5,17.8-148.8     c5.8-6.8,11.3-8.2,14.9-8.2c2.6,0,5,0.7,7.3,2.1c14.1,8.6,35.9,43.8,44.7,58.6l0.9,1.5l1.4-1c34.6-25.4,75.9-38.3,122.6-38.3     c39.6,0,72.3,9.2,88.2,14.7l1.7,0.6l0.4-1.7c8.6-34.8,18.9-59.3,32.6-77c7.4-9.7,15.5-14.6,24-14.6c8,0,13.3,4.5,14.8,5.9     c41.5,37.4,58.3,133.8,61.2,152.8l0.1,0.8l0.8,0.4c26.1,12.1,46.1,34,57.7,63.2c10.1,25.2,14.1,56.1,11.2,87     c-4.2,45.9-29.5,72.2-40.2,81.4l-0.7,0.6l2.1,13.4l20.7,51l0.2,0.2c58.7,61.3,95.8,131.4,116.5,179.4     c19.5,45.1,28.7,79.3,31,88.7l0.1,0.5l0.4,0.3c28.2,22.9,42.1,51.5,48.7,71.6c4.2,12.7,6.2,23.6,7.1,30.5l0.2,1.9l1.8-0.6     c31.9-10.3,34.4-47.5,34.4-58.7c0-15,10-26.2,23.2-26.2c5.6,0,11.5,2,17.4,5.9c11.7,7.7,20.4,24,23.2,43.8     c2.3,16.2,1.6,41.8-14.6,71.6c-24.5,45.1-80.5,62.8-97.1,67.1l-0.8,0.2l-0.3,0.7c-17.6,41.4-58,53.7-59.7,54.2l-0.9,0.3     L559.3,1495.8L559.3,1495.8z" style="fill: #FFE4C5;"></path><path class="st3" d="M842,878.8c0,0,0.5,4,7.1,4.7s15-0.9,15.7-4.7s-0.5-9.2,2.5-15.1s8.8-9.2,18.4-9.5     c9.6-0.2,15.7,6.6,17.8,9.7c2.1,3,5,8.6,10.2,7.3c5.2-1.2,8.1-5,8.1-7.1S903.9,847,903.9,847s-21-6.8-27.1-6.2s-18.7,8-23.4,12.3     c-4.6,4.3-8.6,14.8-9.6,16" style="fill: #FFFFFF;"></path><path class="st4" d="M744.5,656.9c0,0-15.5-34.6-27.5-46.3s-15.5,27.1-10,81.3l34.2-35" style="fill: #E0B392;"></path><path class="st4" d="M1078,677.1c0,0-15.2-74.3-33.7-104.2s-33.6,29.4-33.1,60.8c0,0,26.9,22.7,33.1,29.6     c6.1,6.9,16.3,8.2,18.6,11.4S1078,677.1,1078,677.1z" style="fill: #E0B392;"></path><path class="st5" d="M737.2,652.7c1.3,2.1-51.3,84.3-56.5,87.7c-5.2,3.5-8.6,7.9-16.4,12.9c-7.8,5-18.1,9.3-22.6,18.5     s-24.5,29.2-25.2,39.9s11.2,61.4,11.2,61.4s17.3,27.2,25.9,26s27.1-9.7,27.1-9.7s0.7-16.4,0-23.5s-11.4-89.9,34.2-141.2     s107.8-74.2,155.9-74.2c48.1,0,71,7.1,88.1,20.7c17.1,13.6,42,35.7,42,35.7s-8.4,34.2-9.5,42.1s0.3,29.5-0.4,41.5     s2.4,21.3,4.8,36.3s19.8,65.1,26.8,67.5s10.5,6.7,16.2,8.8s17.8,2.9,25,2.9s17.1,3.6,24.3-0.7c7.1-4.3,30-6.3,36.4-11     s27.5-19.7,31.2-31.1c3.7-11.4,8.7-33.5,8.7-47.8s-3.9-43.5-8.7-62c-4.8-18.6,21.8-33.6-21.1-55.7c-42.9-22.1-55.7-15.5-65-20.6     s-18.9-2.2-25.1-10.1s-11-14.3-21.8-22.1s-23.7-22.8-40.1-30c-16.4-7.1-55.6-23.8-66-21.9c-10.3,1.9-70.1,5.5-76.9,5.5     s-31.8,8.6-42.5,12.8S737.2,652.7,737.2,652.7z" style="fill: #FFA348;"></path><path class="st6" d="M653.4,766.8c0,0-17.6,13.2-20.8,40c0,0,8.6,14.3,6.8,26.7c-1.8,12.5-4.7,15-4.7,15s3.5,16,12.9,28.5     c9.3,12.5,15.4,8.9,15.4,8.9s-1.4-21.8-2.9-28.2s-5.7-34.6-5.3-42.1s0.3-24.7,2.3-32.5s1.7-21.4,1.7-21.4" style="fill: #F15726; fill-opacity: 1;"></path><path class="st6" d="M665.9,887.1c-0.8-5.3-1.6-10.5-2.4-15.8c-1.2-1.1-2.1-2.5-2.6-4.2c-3.7-12.5-3.2-25.3-2.6-38.1     c-0.1-0.2-0.2-0.5-0.3-0.7c-3.1-8.6-1.1-18.3,1.3-27.3c0-0.7,0.1-1.3,0.2-2c-1-1.5-1.6-3.3-1.4-5.4c1-14.4,1.7-31.3,13.2-41.4     c-1.8-0.6-3.4-0.8-4.5-0.5c-4.8,1.6-12.9,6.4-12.9,6.4s-15.7,29.3-10,77.2s14.8,55.5,14.8,55.5h8.9     C666.7,889.7,666.1,888.5,665.9,887.1z" style="fill: #F15726; fill-opacity: 1;"></path><path class="st3" d="M676.1,755.8c0,0-27.6,52.7-2.9,130.2c0,0-11.8,0-12.1-1.8c-0.4-1.8-2.5-21.4-3.9-30s-2.5-29.2-2.5-38.5     s0.4-18.9,1.8-29.6c1.4-10.7,7.8-24.6,8.9-25.7s4.3-4.6,4.3-4.6" style="fill: #FFFFFF;"></path><path class="st3" d="M732.6,674.6c0,0,63.5-63,154.3-60.6s145.2,60.6,145.2,60.6l18.4-4.5c0,0-30.4-34.7-38.5-39.9     S900.7,595,893.6,593.1c-7.1-1.9-48.6,3.8-54,5.5s-61.1,23.1-64.9,25c-3.8,1.9-19.3,11.8-30.1,23.8" style="fill: #FFFFFF;"></path><path class="st6" d="M1027.5,677.1c0,0-53.1-49.8-137.1-49.3S717,674,686.1,753.4c0,0,13.3-6.2,15.2-9.5s15.6-22.2,24.7-28.5     c9.1-6.2,62.6-55.9,130.2-58.4s118.4,23.3,131.3,35c13,11.8,13.3,17.6,18.1,13.8s26.3-24,26.3-24" style="fill: #F15726; fill-opacity: 1;"></path><path class="st6" d="M1042,689.5c0,0,31.4-10.4,55.3,10.3s26.7,50.3,26.7,50.3s-20.2,11-18,35.6c2.3,24.6,11.5,33.5,18,30.7     c6.4-2.9,5.6,33.5-8.2,56.3c-13.8,22.8-29.2,26.4-29.2,26.4s-7.5,1.7-10.7,2.1c-3.2,0.4-6.8-3.1-13-7.1s-10.5-10.4-14.4-15.8     s-18.8-37.3-21.9-47s-4.9-12.6-6.7-23.3s-4.3-76.9,0-89.6s24.4-35.2,24.4-35.2" style="fill: #F15726; fill-opacity: 1;"></path><path class="st3" d="M1059.1,905.9c0,0-18-14.9-31.7-44.9c-13.6-30-25.1-78.5-16.5-120.5s21-58.7,21-58.7s9.6,0.5,6.8,3.4     c-2.9,2.9-16,25.7-16.2,34.6c-0.2,8.9-3,18.5-4.5,29.2c-1.4,10.7,0,21,0,29.2s1.8,47.5,18.9,78c17.1,30.4,31.4,44,32.5,45.4     s-3.2,3.6-5.7,4.3" style="fill: #FFFFFF;"></path><path class="st7" d="M856.3,1216.7c-3,1.7-383.2-1-385.3,0s-24.3,11-26.4,21.7s8.4,17.6,10.2,33.1     c1.9,15.4,77.5,199.5,88.2,204.8s638.4,6.1,638.4,6.1s5.7-10.8,0-16.4s-15.7-21.4-22.8-18.5s-12.8,1.4-39.2,2.1     c-26.4,0.7-111.3,5-123.4,2.9s-17.1-2.9-27.1-2.1c-10,0.7-15.5-0.5-15.5-0.5l-69.5-222.4l-27.6-14.1" style="fill: #7A736C;"></path><path class="st8" d="M894.4,1270.7c0,0-4-34.5-49.3-36.7H486.7c0,0-28.5,0.7-19.3,23.5l80.6,197.9c0,0,2.1,11.1,20.7,15.4     c0,0-15.7,10.7-22.1,5.3c-6.4-5.3-13.6-7.6-20-20.8c-6.4-13.1-75.6-176-77-184.1s-15.6-32.6-5.3-43.9     c10.3-11.3,49.5-16.3,68-17.7c18.5-1.4,331,9.3,341,8.6c10-0.7,24.8,1.2,30.6,9.1s9.5,11.3,10.5,18.9" style="fill: #AAA49F;"></path><path class="st4" d="M1350,1396.3c0,0,43.3-4.9,66.1-41.5c22.8-36.6,13.8-59.7,20-51.7s10,46-8.6,76.7     c-18.5,30.7-55.6,48.6-55.6,48.6l-21.9-3.7V1396.3z" style="fill: #E0B392;"></path><path class="st4" d="M1078,1445.2c0,0,5.7-22.1,49.9-27.1l-17.8-3.6c0,0-34.2-113.5,13.6-143.1c47.8-29.6,96.3,27.6,106.3,77.9     c0,0,5-26.8,0-38.9c0,0-18.5-23.5-13.2-25.3s26.8-11.8,28.9-16.6c2-4.8,20-10.9,20-10.9s50.6,24.5,56.3,110.6     c4.5,68.5-19.7,97.7-29.8,108.1c-10.1,10.3-25.8,1.8-39.4,3.9s-42.8,8.6-53.5,4.3c-10.7-4.3-16.4-2.9-19.3-8.2     c-2.9-5.3-5.7-12.5-8.6-16.8s-5.7-9.3-12.8-12.1s-65.6-2.9-65.6-2.9" style="fill: #E0B392;"></path><path class="st3" d="M1022,1406.4c0,0-10.7-8.1-37.5,0s-28.8,24.5-31.1,21.6c-2.4-2.9-11.8-18.7-9.3-25.2s9.3-16.8,9.3-16.8     s-1.2-13.9,0-19.8s15.5-25.7,15.5-25.7s10.8-0.5,14-8.4c3.2-7.8,14.6-10.3,14.6-10.3l-14.6,61.3c0,0,16.3,6.6,29.2,13.2" style="fill: #FFFFFF;"></path><path class="st9" d="M1133.8,923.7L1089,971c0,0-9.9,41.7-16.8,46.8s-14.3,30.8-14.6,35s-4.6,21.4-4.6,21.4l-15.3,43.2     c0,0-16.8-0.7-20,0s-18.2-9.6-18.2-9.6l-20.9,9.7c0,0-27.9,9.3-36.4,14c-8.6,4.6-14.7,24.9-50.4,29.9c-35.6,5-64.5,6.1-73.1,1.8     c-8.6-4.3-31-17.1-38.5-12.8c-7.5,4.3-18.2,51.7-21.4,54.2s-11,12.1-3.9,11.1c7.1-1.1,91.5-6.1,122.7,13.2     c31.1,19.3,31.4,42.4,29.6,47.8c-1.8,5.3,39.4,119.8,39.4,119.8l17-61.5h21l16.4-25.2l15.7,25.2l42.5,8.5c0,0,1.3-77.1,38.8-96.9     s62.1-2,78.1,5.5s40.7,33.2,40.7,33.2s48.1-13.9,65.3-35.3c17.1-21.4,9.6-25.7,7.5-33.2s-12.8-57.8-20.3-71.7s-37.4-65.3-46-79.2     c-8.6-13.9-22.5-36.9-31-47.9s-25.7-15.5-31-34.1s-11.8-36.2-12.8-40.3S1133.8,923.7,1133.8,923.7z" style="fill: #779698;"></path><path class="st6" d="M927.5,1167.7c0,0-15.9,5.7-22.9,3.5c-7-2.1-24-4.2-26.9-3.5c-3,0.7-10.1,3.5-6.9,9.3     c3.2,5.7,3.9,21.8,2.5,23c-1.4,1.3-7.1,14.9-2.5,16.7s23.9,21,25.3,24.5c1.4,3.6,7.8,21.4,11.1,24.6     c3.2,3.2,39.4,123.7,39.4,123.7s23-77.7,22.3-79.9c-0.7-2.1-20.6-44-21.7-48.4c-1.1-4.4-3.1-23.7-5-27.2     c-1.8-3.6,2.9-11.7,0-17.4c-2.9-5.7,4.2-17.7,4.4-23s4.8-11.7,0-17.4s-16.2-15-16.2-15" style="fill: #F15726; fill-opacity: 1;"></path><path class="st5" d="M922.2,1177c0,0,8.9,6.4,9.6,25c0.7,18.5-15.3,30-15.3,30v10.6c0,0,5.3,3.8,13.2,3.9c0,0,30.3,90,30.3,90.7     s12.1-17.7,11.8-19.4c-0.4-1.7-5-14.5-11.1-32.7s-18.1-44.6-18.5-53.1c-0.4-8.6-1.4-14.3,0-20.3c1.4-6.1,3.8-13,4.4-17.9     s0.2-10.6-2.5-14.2s-8.7-10.3-11.6-11.8s-8.2,1.1-9.6,1.8" style="fill: #FFA348;"></path><path class="st10" d="M800.7,1160l-17.3,56.6l-28.5-1.1c0,0,13.2-44.2,14.1-47.8s15.9-19.3,15.9-19.3L800.7,1160z" style="fill: #B2C6BE;"></path><path class="st10" d="M1030.9,1093.8c0,0,16.2-39.5,51.8-49.9c35.7-10.5,57.1,28.1,50.2,62.5c-6.9,34.5-33.9,48.1-50.4,30.1     s-28.8-10.8-34,7.9l-23.8,93.9c0,0-4.8,7.1,7.6,11.4c12.4,4.3,23.8,2.4,35.2,11.9c11.4,9.5,10.5,17.6,10.5,17.6     s-9.1-1.9-16.7-4.8s-21.4-4.9-25.2-6c-3.8-1.1-11.1-3-14.1,0s-13,2.9-13,2.9s15.2,44,18.5,46.4s29,13.3,33.3,19.5     s-12.8,1.9-18.5,0s-20.9-1.4-22.8-4.8c-1.9-3.3-11.9-14.3-13.8-18.1c-1.9-3.8-5-4.3-4.3-0.5s-4.3,18.5-8.1,18.5s-14.7-0.5-16.6-1     s1-1.9,0-10s16.2-89.6,16.2-92.9s3.3-28.7,3.3-28.7l-1-28.7c0,0,23.1-42.3,26.8-50.9c3.7-8.6,12.2-25.2,12.2-25.2" style="fill: #B2C6BE;"></path><path class="st10" d="M1108.7,962.5l13.6,18.3c0,0-5,22.3-25,56.8l25,13.1c0,0,17.1-15,27.8-29.2c0,0,75.6,94.2,107.3,235.4v11.6     c0,0,26-33,26.8-34.4s9.3-5,7.8-13.6c-1.4-8.6-7.8-37.8-10-41.4c-2.1-3.6-45.7-99.9-69.9-134.1c-24.3-34.2-47.1-55.5-51-61.3     s-13-27.2-21.3-37.2s-9.7-10.9-14-11.2s-15,20.4-15,20.4" style="fill: #B2C6BE;"></path><path class="st3" d="M703.9,842.6c0,0-6.8-84.3,81.7-130.7c88.4-46.4,190.2,25.3,201.1,58.5l9.1-41.4c0,0,6.6-23.5,4.9-25.3     s-3.2-12.5-8.2-11.8s-49.2-37.8-121.6-41.4s-131.6,46.4-159.4,81.3c-27.8,35-30.7,74.2-30.7,74.2l16.5,50.2L703.9,842.6z" style="fill: #FFFFFF;"></path><path class="st3" d="M726.1,970.5c-0.4,2.5-9.2,24.9,3.4,26.5c12.6,1.6,34.7,13,41.9,14.5c7.1,1.4,42.1,4.3,41.4-9.6     c-0.7-13.9-6.2-26.1-11.9-23.9c-5.8,2.1-12-8.5-20.9-7.5s-30.7-5.4-35.3-3.2" style="fill: #FFFFFF;"></path><path class="st4" d="M682.6,894.2c0,0-53.2,61.8,8.1,89.5s117,19.4,139.1,6.8c22.1-12.6,23.5,44.5,0,69.4s30,39.9,64.9,22.1     c35-17.8,59.9-53.7,60.6-64.3s-19.6-16.9-8.7-34.1c10.9-17.2,43.7-24.3,68.7-13.3c0,0,18.5-16.3,23.5-35.1s-2.9-32.3,0-32.3     s49.2,2.1,49.2,2.1l27.8-5.9c0,0,9.3,1.4,10.7,9c1.4,7.6,17.1,20.4,0,30.4s-35.7,27.8-43.5,40.7s-10.9,22.1-17.6,43.5     s-37.9,54.2-38,59.9s-2.6,20.7-4.9,25s-23,0-23,0s-18.8,12.8-46.1,26.4s-59.6,32.8-103,33.5s-77.4-21.4-81.5-27.8     s-11.6-15-31.7-18.5c-20.1-3.6-47.2-6.4-56.5-14.3s-28.1-27.8-39-43.5s-10.9-35-17-56.3c-6-21.4-3.9-62.8,0-68.5     s23.9-32.1,26.8-35C654.3,901,682.6,894.2,682.6,894.2z" style="fill: #E0B392;"></path><path class="st2" d="M800.7,1148.5c0,0,77.1,2.9,134.2-46.5c57.1-49.4,55.2-67.1,60.8-77.1s5.2,0,9,2.9s10.4-14.3,3.3-27.4     c-7.1-13.1-21.4-1.2-20.9,0s0.4,14.5-4.3,22.1s-11.4,24.3-23.7,35.7c-12.4,11.4-5.3,22.5-49.2,43.8c-44,21.3-70.6,25.6-79.6,27.5     s-28.8,10.9-35.1,9s-19.4,0-17.4,1.4" style="fill: #FFE4C5;"></path><path class="st3" d="M744.5,703.7c0,0-59.6,57.4-35.3,180.8c0,0-56.3,55.9-57.8,106c-1.4,50.2,27.8,81.6,81.3,102.2l7.8,32.1     c0,0-36.4-1.4-50.6-12.8c-14.3-11.4-27.9-36.4-38.6-49.2c-10.6-12.8-22.8-47.8-23.5-54.9s0.7-34.2,3.6-49.2     c2.9-15,15-40.2,23.5-50.4s22.1-22.3,25.7-24.5s5.4-10.6,5.4-10.6s-5.7-63.4,6-101.3C703.8,733.9,722.8,713.4,744.5,703.7z" style="fill: #FFFFFF;"></path><path class="st3" d="M697.3,860c0,0,0.4,4.4,4.6,5.8c4.2,1.5,6.8,0,7.8-1.1c1.1-1.1,2.1-8.1,5.9-10.5s10.5-2.3,13.9,0     s4.6,7.1,4.5,12.2c-0.2,5.1-0.4,7.9,2,8.7c2.3,0.7,15.2-0.4,16.9,0c1.8,0.4,1.9-1.6,1.8-5.1s-8-14.6-11.1-17.6     s-9.3-8.9-14.8-10.1s-10.7-1.1-15,1.2s-13.2,9.8-13.2,9.8" style="fill: #FFFFFF;"></path><path class="st0" d="M850.5,881c7.5,0.4,11.2-2.2,10.7-5.7c0,0-4.3-12.8,11.1-21.4c15.3-8.6,30.3,3.2,34.6,10.7      s12.8,4.9,14.6-1.5c1.8-6.3-7.5-23.5-33.2-30.2s-46.7,13.2-48.5,32.1C838.3,880.2,843,880.6,850.5,881z" style="fill: #410B01; fill-opacity: 1;"></path><path class="st0" d="M739.4,839.3c-16.6-8.9-35.1-1.8-39.8,9.5c0,0-4.6,10.3-0.9,13c3.7,2.7,8.4,2.3,9.3,0.2      c0.9-2.1,3.7-12.1,14.1-12.7c10.3-0.5,16.4,5,15.5,17.7c0,0-1.2,5.5,3,6.2h8.7c0,0,5,0.7,5.5-3.1      C754.9,870,756,848.2,739.4,839.3z" style="fill: #410B01; fill-opacity: 1;"></path><path class="st0" d="M1468.6,1301.5c-2.8-20.2-11.8-37-23.9-44.9c-6.2-4.1-12.4-6.1-18.3-6.1c-14.1,0-24.8,12-24.8,27.8      c0,11.5-2.6,47.3-33.3,57.2c-0.9-7.3-2.9-18.2-7.1-30.8c-6.8-20.4-20.8-49.2-49.2-72.3c-2.4-9.8-11.6-43.8-31.1-88.9      c-20.9-48.2-58.1-118.5-116.9-179.8l-20.5-50.5l-2-12.3c10.2-8.8,36.4-35.6,40.7-82.5c2.9-31.1-1.2-62.2-11.3-87.7      c-11.9-29.7-32.1-51.8-58.6-64.1c-3.4-22-20.2-116.3-61.7-153.7c-1.5-1.4-7.2-6.4-15.9-6.4c-9,0-17.5,5.1-25.2,15.2      c-13.7,17.9-24.2,42.7-32.9,77.6c-15.2-5.2-48.5-14.8-88.8-14.8c-47.2,0-88.7,13-123.6,38.6c-9.6-16.2-31.1-50.5-45.3-59.1      c-2.5-1.5-5.3-2.3-8.2-2.3c-3.9,0-9.9,1.5-16.1,8.7c-17,19.7-29.1,73.7-18.2,150.1l-8.3,14.5c-5.1,1.4-14.6,4.5-24.8,10.9      c-13.7,8.6-31.5,25-38.4,54.2c-6.9,29.1-3.8,55.9,8.5,75.7c7.2,11.5,17.1,20.1,29,25.4c-13.6,16-37.2,51.3-35.6,101.1      c1.1,34.9,15.4,69.5,39.2,94.9c12.6,13.5,27.5,24.1,44.1,31.5c16.7,7.4,34.8,11.5,54,12.2c4.4,5.9,7.6,9.6,10,12l-12.1,45.5H481      c-0.7,0-2.2-0.1-4.4-0.1c-12.2,0-34.3,2.3-46.1,17.9c-7.7,10.2-9.2,23.7-4.6,40.2l0.1,0.5l91.9,218.8c1.3,5,8,20.5,40.8,21.9      h0.2h735l1.1-0.3c1.8-0.5,42.8-13,60.7-55.1c16.2-4.2,73.2-22,98.1-67.9C1470.3,1343.9,1470.9,1317.9,1468.6,1301.5z       M1362.6,1364.2c60.6-18.5,58.8-62.1,58.8-74.5c0-12.5,2.5-17.5,7.1-17.5s12.8,6.4,15.7,20c2.9,13.6,10.7,49.9-15.7,82      c-26.4,32.1-71,40.3-71,40.3C1363.7,1391,1362.6,1364.2,1362.6,1364.2z M539.5,1455.9l-82-198.3c-12.1-29.3,22.1-30,22.1-30      h356.6c47.1-2.1,52.1,22.1,52.1,22.1l58.3,199c4.8,25.7-21.9,22.1-21.9,22.1h-356C543.8,1470.9,539.5,1455.9,539.5,1455.9z       M737.3,978.6c1.1-6.8,16.2-9.9,33.7-7.1c17.5,2.8,30.8,10.6,29.7,17.4c-1.1,6.8-16.2,9.9-33.7,7.1      C749.5,993.2,736.2,985.4,737.3,978.6z M739.2,1028.6l0.8-2.1c28,4.5,60.9-0.9,78.3-10.7c23.5-13.2,14.3-35.7-18.5-46.7      C767,958,708.9,953.4,691.7,967s-8.6,34.4,21.4,50.9c3.9,2.1,8.1,3.9,12.5,5.3c-2.2,7.1-14.9,53.3,11,91.1c0,0-56-6.8-84.2-54.2      c-28.2-47.4-29-113.7,40.8-175.9c1.1-1-22.3-103.2,28.1-158.8c50.4-55.6,172.6-113.2,272.5-15.7c0,0-26.6,57.1-6.7,122.2      c20,65.1,47.6,78.9,51.8,79.9c4.3,1,38.5,0,38.5,0s7.6,70.4-35.7,136.5c0,0-13.3-6.2-23.8,6.2l-22.3,40.9c0,0-7.6,12.6-2.3,20.8      c5.3,8.2,11.8,11.4,17.8,13.2c0,0-20.7,35.3-44.9,61.3c0,0-15.7-25.3-30-36c0,0,32.8-21,48.1-31.7c0,0-11.1-7.5-20-4.3      s-42.4,31-91.7,36.4c-49.2,5.3-67.4-7.8-77.7-16.4c0,0,64.6,7.1,123.4-37.1s67-70.6,74.2-96.3c0,0,5.3,0.4,9.6,6.1      c4.3,5.7,12.8-6.8,0.7-17.1s-27.5-11.8-37.4-7.1c-10,4.6-6.8,17.5,13.2,15c0,0,0.9,37.8-49.2,79.9      c-50.2,42-132.7,59.9-171.2,34.2S739.2,1028.6,739.2,1028.6z M676.8,760.4l3.9,11.1C664,820,676.8,881,676.8,881h-9      c-11.4-41.2-10.1-71.5-6.7-89.9c3-16.6,8-26.7,10-30.2C674.6,760.4,676.8,760.4,676.8,760.4z M657.8,881h-1.7      c0,0-16-4.6-24.3-19.6s-11.8-51.4,2.8-76.3c6.6-11.3,15.9-17.4,24.1-20.7C651.5,781.4,641.4,819.9,657.8,881z M713.2,593.5      c5,2.5,22.8,28.2,31.4,47.4c0,0-26.6,27-43.5,51c0,0-6.8-22.8-3.2-58.5C701.4,597.8,708.2,591,713.2,593.5z M813,618.8      c90.2-34.2,178,0.7,225.8,48.5c0,0-27.8,6.1-39.2,27.8c0,0-73.8-72.8-172.6-44.2S694.3,749,694.3,749l-7.5-4.6      C686.8,744.4,722.8,653.1,813,618.8z M1041.6,539.7c4.6,3.6,28.2,28.9,46.4,127.3h-21.4c0,0-30.3-28.5-66-49.6      c0,0,6.8-38.5,17.8-62.1C1029.5,531.8,1037,536.1,1041.6,539.7z M989.6,1261.2c0,0,9.6-44.2,11.1-51.7      c1.4-7.5-3.6-22.8-3.6-22.8l-25,98.4l-22.5-67.8c4.3-6.8,4.6-19.3,4.6-19.3c5,5,10.7,15.3,10.7,15.3      c35-36.7,58.5-84.9,58.5-84.9c8.2-1.8,14.3-11.1,14.3-11.1l16.8-30.7c6.8-12.5,6.4-20.3,6.4-20.3c9.6-12.1,33.2-22.1,55.3-8.9      c22.1,13.2,16.8,48.9,16.8,48.9c21.4-35-7.8-64.2-7.8-64.2c13.6-22.8,27.1-54.2,27.1-54.2c106.3,125.5,129.8,239.5,129.8,239.5      c-22.8,42-63.8,47.6-63.8,47.6c-43.9-59.2-90.6-47.6-90.6-47.6l-3.2-41.2l-10.7,41.2c-14.3,4-24.4,14.5-31.1,24.3      c-4.7,6.6-8.7,13.3-12,20C1029.6,1249,989.6,1261.2,989.6,1261.2z M1065.4,1283c-7.2,17.9-10.1,35.6-10.6,51.9      c-6.3-2.9-19.3-7.8-36.5-9.2l-15.5-29.5l-13.8,27.3l-10.5,2.9c0,0,8.1-42.3,10.5-50.9C989.1,1275.4,1024.1,1262.5,1065.4,1283z       M1095.6,912.6c8.6-1,22.3-4.3,22.3-4.3v12.8c-8.1,19-25.7,41.4-25.7,41.4C1096.6,938.8,1095.6,912.6,1095.6,912.6z       M1127.5,943.5l12.4,24.3c0,0-14.7,40.9-33.8,61.3c0,0-17.6-2.9-33.8,8.6c0,0,8.6-18.3,13.8-35.8      C1086.1,1001.9,1116.4,965.1,1127.5,943.5z M1139.2,866.5c-20.2,29.2-44.9,30.7-44.9,30.7c0-5.3-2-14.4-2-14.4      c-0.5-3.6-5.9-5.2-10-4.3s-7.5,2.7-6.6,8.9s0.9,11.8,0.9,11.8s-1.6,0-4.1,0.1c-26.9-25.6-53.3-74.5-49.6-138.5      c3-51.9,20.9-71.7,27.7-77.5c28.4-5.6,54.5,6.9,54.5,6.9C1172.9,729.8,1159.3,837.3,1139.2,866.5z M1059.1,899.3      c-5.3,0-10,0-11.1-0.2c-2.9-0.4-14.6-7.1-28.5-30.7c-13.9-23.5-27.5-64.2-22.8-108.8c4.6-44.6,22.8-61.3,22.8-61.3      c4.2-3.7,8.7-6.6,13.1-8.9c-8.4,12.9-17.3,34.7-19.4,70.7C1009.7,822.1,1033.1,870.8,1059.1,899.3z M881.5,1174.1      c0,0,4.3-1.4,5.3,0c1.1,1.4,5.7,5.7,14.3,6.8c8.6,1.1,16-6.8,16-6.8l-10,25l23.5-27.8c5.3,2.5,10.3,12.1,10.3,12.1      s5.7,24.6-8.6,37.1s-32.1,7-32.1,7c-4.6-10.5-21-18.8-21-18.8c-5-9.6,2.1-20.6,2.1-20.6l17.8,14.6L881.5,1174.1z M866.5,1204.5      h-10.2c0,0,0.2-18.5,14.5-21.6C870.8,1182.9,864.4,1190.9,866.5,1204.5z M845.1,1174.5l-5.7,30h-68.1l11.4-43.2      C813.4,1172.4,845.1,1174.5,845.1,1174.5z M944.3,1372.1l-37.1-129.5c0,0,17.6,2.1,31-8.6l25.3,77L944.3,1372.1z M1026.2,1410.5      c0,0,0.7-9.3-8.8-20.4c-9.5-11.2-37.3-15.9-52.1-14.3l8.6-32.8c0,0,13.1-3.1,21.2-5.9l7.1-19.3l9.7,19.3c0,0,22.3,0.5,43.1,11.1      c1.9,37.4,15.6,64.6,15.6,64.6s-26.4,5.5-37.8,29.2H966l-12.6-42.1C953.4,1399.8,995.7,1377.9,1026.2,1410.5z M1151.1,1455.5      c20.3-1.4,20.3,20.7,20.3,20.7H977l-4.6-19.3L1151.1,1455.5z M1149.7,1441.9h-92c0,0,8.2-15.9,43.5-19.1s44.2,10.3,44.2,10.3      c-9.3-31-55.3-25.3-55.3-25.3l-1.1-3.9c-9.3-21-16.8-53.1-11-92.7c5.7-39.6,29.9-76.7,78.4-61s62.4,57.4,65.3,64.6      c2.9,7.1,12.8,8.6,12.8,8.6c-1.1-19.6-8.2-35.3-8.2-35.3c41-10,63.1-37.8,63.1-37.8c47.1,32.5,56.3,88.1,49.2,148.7      c-7.1,60.6-49.6,72.2-49.6,72.2h-99.9C1183.9,1440.2,1149.7,1441.9,1149.7,1441.9z" style="fill: #410B01; fill-opacity: 1;"></path><path class="st0" d="M679.5,1327.9c4.2,2.6,8.3,5.4,12.3,8.4c7.2-5.5,15-10,23.6-13.4c-0.7-0.4-1.4-0.7-2.1-1.1    c-11.5-5.3-24.8-2.9-35.7,5.1C678.3,1327.2,678.9,1327.5,679.5,1327.9z" style="fill: #410B01; fill-opacity: 1;"></path><path class="st0" d="M668.6,1344.2c-1.5-0.9-2.9-1.7-4.3-2.4c-0.9,1.5-1.7,3-2.4,4.6c-4.3,9.3-5.6,19-4.3,27.8    c5.7-8.7,12.2-17,19.3-24.4C674.3,1347.8,671.5,1346,668.6,1344.2z" style="fill: #410B01; fill-opacity: 1;"></path><path class="st0" d="M692.3,1362.6c-0.2-0.2-0.4-0.3-0.5-0.5c-8.3,8.7-15.5,18.8-21.4,28.9c-0.9,1.5-1.7,2.9-2.5,4.4    c2.5,2.5,5.4,4.5,8.7,6.1c12.9,5.9,28.1,2.2,39.6-8.3C710,1381.9,702,1371.6,692.3,1362.6z" style="fill: #410B01; fill-opacity: 1;"></path><path class="st0" d="M728.6,1375.6c5.5-12.7,5.4-26.2,0.8-36.9c-3.1,0.9-6.1,1.9-9.1,3.2c-4.7,1.9-9.2,4.4-13.4,7.3    C715.1,1357.2,722.5,1366.1,728.6,1375.6z" style="fill: #410B01; fill-opacity: 1;"></path><path class="st0" d="M709.1,1320.2c0,0,2.3-26.9,30.1-35.1C739.2,1285.1,740.2,1313.7,709.1,1320.2z" style="fill: #410B01; fill-opacity: 1;"></path><path class="st0" d="M709.1,1320.2c0,0,0.9-23.4-19.8-39.8C689.3,1280.4,683.9,1307.9,709.1,1320.2z" style="fill: #410B01; fill-opacity: 1;"></path><path class="st10" d="M1043.6,1058.1c0,0-9.2-5-16.3,0l-22.2,40.6c0,0-6.5,12.1,2.4,16.9c0,0-2.1-7.1,1.5-13.6l21-38.2   C1029.9,1063.7,1031.1,1057.5,1043.6,1058.1z" style="fill: #B2C6BE;"></path></svg></g> <g transform="rotate(0 287.5 428.80455632965663)"><svg y="402.60955854218105" viewBox="3.299999952316284 12.699999809265137 252.1699981689453 52.38999557495117" x="161.41500091552734" height="52.38999557495117" width="252.1699981689453" style="overflow: visible;"><g fill="#F15726" fill-opacity="1" style=""><path d="M41.76 26.65L41.76 54.14L34.09 54.14L34.09 26.65Q34.09 25.85 33.78 25.15Q33.47 24.45 32.95 23.93Q32.42 23.41 31.73 23.11Q31.03 22.81 30.22 22.81L30.22 22.81Q29.42 22.81 28.72 23.11Q28.02 23.41 27.50 23.93Q26.98 24.45 26.68 25.15Q26.38 25.85 26.38 26.65L26.38 26.65L26.38 54.14L18.68 54.14L18.68 26.65Q18.68 25.85 18.39 25.15Q18.09 24.45 17.57 23.93Q17.04 23.41 16.35 23.11Q15.65 22.81 14.84 22.81L14.84 22.81Q14.04 22.81 13.34 23.11Q12.64 23.41 12.12 23.93Q11.60 24.45 11.30 25.15Q11.00 25.85 11.00 26.65L11.00 26.65L11.00 54.14L3.30 54.14L3.30 26.65Q3.30 24.26 4.20 22.16Q5.10 20.05 6.67 18.48Q8.24 16.91 10.35 16.01Q12.45 15.11 14.84 15.11L14.84 15.11Q16.99 15.11 18.98 15.88Q20.96 16.64 22.55 18.09L22.55 18.09Q24.13 16.64 26.10 15.88Q28.08 15.11 30.22 15.11L30.22 15.11Q32.61 15.11 34.72 16.01Q36.83 16.91 38.40 18.48Q39.97 20.05 40.87 22.16Q41.76 24.26 41.76 26.65L41.76 26.65ZM75.32 39.51L75.32 39.51Q75.32 42.73 74.16 45.51Q73.01 48.29 71.02 50.31Q69.03 52.34 66.36 53.51Q63.69 54.67 60.63 54.67L60.63 54.67Q57.60 54.67 54.93 53.51Q52.26 52.34 50.26 50.31Q48.26 48.29 47.11 45.51Q45.95 42.73 45.95 39.51L45.95 39.51Q45.95 36.24 47.11 33.44Q48.26 30.65 50.26 28.63Q52.26 26.60 54.93 25.45Q57.60 24.29 60.63 24.29L60.63 24.29Q63.69 24.29 66.36 25.38Q69.03 26.47 71.02 28.46Q73.01 30.46 74.16 33.27Q75.32 36.07 75.32 39.51ZM67.93 39.51L67.93 39.51Q67.93 37.74 67.36 36.30Q66.78 34.87 65.79 33.83Q64.79 32.80 63.47 32.25Q62.14 31.70 60.63 31.70L60.63 31.70Q59.13 31.70 57.80 32.25Q56.47 32.80 55.49 33.83Q54.51 34.87 53.95 36.30Q53.39 37.74 53.39 39.51L53.39 39.51Q53.39 41.17 53.95 42.60Q54.51 44.02 55.49 45.07Q56.47 46.11 57.80 46.72Q59.13 47.32 60.63 47.32L60.63 47.32Q62.14 47.32 63.47 46.76Q64.79 46.19 65.79 45.17Q66.78 44.15 67.36 42.70Q67.93 41.25 67.93 39.51ZM104.49 31.11L104.49 31.11L99.12 36.50Q98.72 35.38 98.02 34.48Q97.33 33.58 96.45 32.96Q95.58 32.34 94.56 32.02Q93.54 31.70 92.47 31.70L92.47 31.70Q90.96 31.70 89.64 32.32Q88.31 32.93 87.33 34.05Q86.35 35.16 85.78 36.69Q85.22 38.22 85.22 40.07L85.22 40.07Q85.22 41.58 85.78 42.89Q86.35 44.21 87.33 45.20Q88.31 46.19 89.64 46.76Q90.96 47.32 92.47 47.32L92.47 47.32Q93.54 47.32 94.53 47.03Q95.53 46.73 96.40 46.18Q97.27 45.63 97.96 44.84Q98.64 44.05 99.07 43.08L99.07 43.08L104.44 48.47Q103.42 49.92 102.09 51.08Q100.76 52.23 99.22 53.04Q97.67 53.84 95.97 54.26Q94.27 54.67 92.47 54.67L92.47 54.67Q89.43 54.67 86.76 53.53Q84.09 52.39 82.09 50.41Q80.09 48.42 78.94 45.76Q77.78 43.11 77.78 40.07L77.78 40.07Q77.78 36.77 78.94 33.90Q80.09 31.03 82.09 28.89Q84.09 26.76 86.76 25.53Q89.43 24.29 92.47 24.29L92.47 24.29Q94.27 24.29 96.00 24.75Q97.73 25.20 99.30 26.08Q100.87 26.95 102.20 28.21Q103.53 29.47 104.49 31.11ZM115.44 50.46L115.44 54.14L108.06 54.14L108.06 13.96L115.44 13.96L115.44 39.30L126.37 25.45L134.80 25.45L125.27 37.42L134.80 54.14L126.37 54.14L120.54 43.70L115.44 50.46ZM161.98 30.54L148.24 47.11Q148.67 47.24 149.10 47.28Q149.53 47.32 149.96 47.32L149.96 47.32Q151.03 47.32 152.03 47.03Q153.02 46.73 153.89 46.18Q154.76 45.63 155.45 44.84Q156.13 44.05 156.56 43.08L156.56 43.08L161.93 48.47Q160.91 49.92 159.58 51.08Q158.25 52.23 156.71 53.04Q155.17 53.84 153.46 54.26Q151.76 54.67 149.96 54.67L149.96 54.67Q146.93 54.67 144.26 53.55Q141.59 52.42 139.59 50.41Q137.59 48.39 136.43 45.62Q135.28 42.84 135.28 39.51L135.28 39.51Q135.28 36.10 136.43 33.28Q137.59 30.46 139.59 28.48Q141.59 26.49 144.26 25.39Q146.93 24.29 149.96 24.29L149.96 24.29Q151.76 24.29 153.48 24.72Q155.19 25.15 156.74 25.96Q158.28 26.76 159.62 27.93Q160.96 29.10 161.98 30.54L161.98 30.54ZM143.46 43.32L152.00 31.99Q151.49 31.81 150.99 31.75Q150.50 31.70 149.96 31.70L149.96 31.70Q148.46 31.70 147.13 32.25Q145.80 32.80 144.82 33.82Q143.84 34.84 143.28 36.28Q142.71 37.71 142.71 39.51L142.71 39.51Q142.71 39.91 142.75 40.42Q142.79 40.93 142.89 41.46Q142.98 41.98 143.12 42.46Q143.25 42.95 143.46 43.32L143.46 43.32ZM172.99 38.30L172.99 54.14L165.66 54.14L165.66 25.39L167.43 25.39L169.85 28.80Q171.62 27.19 173.88 26.32Q176.13 25.45 178.55 25.45L178.55 25.45L185.01 25.45L185.01 32.75L178.55 32.75Q177.39 32.75 176.37 33.18Q175.35 33.60 174.60 34.36Q173.85 35.11 173.42 36.13Q172.99 37.15 172.99 38.30L172.99 38.30ZM188.88 31.05L211.43 31.05L211.43 38.36L188.88 38.36L188.88 31.05ZM226.24 17.58L226.24 17.58Q226.24 18.60 225.85 19.49Q225.46 20.37 224.81 21.03Q224.15 21.69 223.25 22.08Q222.35 22.47 221.36 22.47L221.36 22.47Q220.31 22.47 219.41 22.08Q218.51 21.69 217.84 21.03Q217.17 20.37 216.78 19.49Q216.39 18.60 216.39 17.58L216.39 17.58Q216.39 16.59 216.78 15.69Q217.17 14.79 217.84 14.13Q218.51 13.47 219.41 13.08Q220.31 12.70 221.36 12.70L221.36 12.70Q222.35 12.70 223.25 13.08Q224.15 13.47 224.81 14.13Q225.46 14.79 225.85 15.69Q226.24 16.59 226.24 17.58ZM210.30 65.09L206.57 65.09L206.57 57.71L210.62 57.76Q212.10 57.76 213.36 57.16Q214.62 56.55 215.55 55.55Q216.47 54.54 217.01 53.23Q217.55 51.91 217.55 50.46L217.55 50.46L217.55 25.39L225.03 25.39L225.03 50.46L224.98 50.46Q224.95 52.47 224.43 54.35Q223.91 56.23 222.94 57.86Q221.97 59.48 220.63 60.81Q219.29 62.14 217.67 63.09Q216.04 64.04 214.18 64.57Q212.31 65.09 210.30 65.09L210.30 65.09ZM246.35 54.14L246.35 54.14L229.60 54.14L229.60 46.84L246.35 46.84Q247.10 46.84 247.63 46.30Q248.17 45.76 248.17 45.01L248.17 45.01Q248.17 44.23 247.63 43.99Q247.10 43.75 246.35 43.75L246.35 43.75L238.72 43.75Q236.82 43.75 235.15 43.03Q233.49 42.30 232.25 41.05Q231.02 39.81 230.31 38.14Q229.60 36.48 229.60 34.57L229.60 34.57Q229.60 32.67 230.31 31.00Q231.02 29.34 232.25 28.10Q233.49 26.87 235.15 26.16Q236.82 25.45 238.72 25.45L238.72 25.45L253.57 25.45L253.57 32.75L238.72 32.75Q237.97 32.75 237.43 33.28Q236.90 33.82 236.90 34.57L236.90 34.57Q236.90 35.35 237.43 35.90Q237.97 36.45 238.72 36.45L238.72 36.45L246.35 36.45Q248.22 36.45 249.89 37.08Q251.55 37.71 252.79 38.84Q254.02 39.97 254.75 41.55Q255.47 43.13 255.47 45.01L255.47 45.01Q255.47 46.92 254.75 48.57Q254.02 50.22 252.79 51.47Q251.55 52.72 249.89 53.43Q248.22 54.14 246.35 54.14Z" transform="translate(0, 0)"></path></g></svg></g></svg>